<?xml version="1.0" encoding="UTF-8"?>
<svg xmlns="http://www.w3.org/2000/svg" xmlns:xlink="http://www.w3.org/1999/xlink" width="24pt" height="24pt" viewBox="0 0 24 24" version="1.1">
<g id="surface1">
<path style="fill:none;stroke-width:2;stroke-linecap:round;stroke-linejoin:round;stroke:rgb(0%,55.686275%,83.921569%);stroke-opacity:1;stroke-miterlimit:4;" d="M 22 7 L 5 7 L 5 19 L 8 19 L 8 22 L 12 19 L 22 19 Z M 22 7 " transform="matrix(0.75,0,0,0.75,0,0)"/>
<path style=" stroke:none;fill-rule:nonzero;fill:rgb(0%,55.686275%,83.921569%);fill-opacity:1;" d="M 15 5.25 L 16.5 5.25 L 16.5 14.25 L 15 14.25 Z M 15 5.25 "/>
<path style="fill:none;stroke-width:1;stroke-linecap:round;stroke-linejoin:round;stroke:rgb(0%,55.686275%,83.921569%);stroke-opacity:1;stroke-miterlimit:4;" d="M 10.5 11.5 L 16.5 11.5 " transform="matrix(0.75,0,0,0.75,0,0)"/>
<path style="fill:none;stroke-width:1;stroke-linecap:round;stroke-linejoin:round;stroke:rgb(0%,55.686275%,83.921569%);stroke-opacity:1;stroke-miterlimit:4;" d="M 10.5 14.5 L 16.5 14.5 " transform="matrix(0.75,0,0,0.75,0,0)"/>
<path style="fill:none;stroke-width:2;stroke-linecap:round;stroke-linejoin:round;stroke:rgb(0%,55.686275%,83.921569%);stroke-opacity:1;stroke-miterlimit:4;" d="M 21.671875 10 L 27 10 L 27 22 L 24 22 L 24 25 L 20 22 L 14 22 " transform="matrix(0.75,0,0,0.75,0,0)"/>
</g>
</svg>
