<?xml version="1.0" encoding="UTF-8"?>
<svg xmlns="http://www.w3.org/2000/svg" xmlns:xlink="http://www.w3.org/1999/xlink" width="28pt" height="28pt" viewBox="0 0 28 28" version="1.1">
<defs>
<linearGradient id="linear0" gradientUnits="userSpaceOnUse" x1="16" y1="2" x2="16" y2="30" gradientTransform="matrix(0.875,0,0,0.875,0,0)">
<stop offset="0.24" style="stop-color:rgb(80.392157%,91.764706%,100%);stop-opacity:1;"/>
<stop offset="0.34" style="stop-color:rgb(76.078431%,89.411765%,100%);stop-opacity:1;"/>
<stop offset="0.5" style="stop-color:rgb(64.705882%,83.529412%,100%);stop-opacity:1;"/>
<stop offset="0.72" style="stop-color:rgb(46.27451%,73.72549%,100%);stop-opacity:1;"/>
<stop offset="0.98" style="stop-color:rgb(21.176471%,60.392157%,100%);stop-opacity:1;"/>
<stop offset="1" style="stop-color:rgb(19.215686%,59.215686%,100%);stop-opacity:1;"/>
</linearGradient>
</defs>
<g id="surface1">
<path style=" stroke:none;fill-rule:nonzero;fill:url(#linear0);" d="M 26.25 14 C 26.25 20.765625 20.765625 26.25 14 26.25 C 7.234375 26.25 1.75 20.765625 1.75 14 C 1.75 7.234375 7.234375 1.75 14 1.75 C 20.765625 1.75 26.25 7.234375 26.25 14 Z M 26.25 14 "/>
<path style=" stroke:none;fill-rule:nonzero;fill:rgb(7.058824%,50.980392%,100%);fill-opacity:1;" d="M 14 0.875 C 6.75 0.875 0.875 6.75 0.875 14 C 0.875 21.25 6.75 27.125 14 27.125 C 21.25 27.125 27.125 21.25 27.125 14 C 27.125 6.75 21.25 0.875 14 0.875 Z M 14 25.664062 C 7.558594 25.664062 2.335938 20.441406 2.335938 14 C 2.335938 7.558594 7.558594 2.335938 14 2.335938 C 20.441406 2.335938 25.664062 7.558594 25.664062 14 C 25.652344 20.4375 20.4375 25.652344 14 25.664062 Z M 14 25.664062 "/>
<path style=" stroke:none;fill-rule:nonzero;fill:rgb(7.058824%,50.980392%,100%);fill-opacity:1;" d="M 18.070312 6.710938 L 16.84375 5.539062 L 8.546875 14.875 L 15.636719 14.875 L 9.929688 21.296875 L 11.15625 22.453125 L 19.453125 13.125 L 12.363281 13.125 Z M 18.070312 6.710938 "/>
</g>
</svg>
