<?xml version="1.0" encoding="UTF-8"?>
<svg xmlns="http://www.w3.org/2000/svg" xmlns:xlink="http://www.w3.org/1999/xlink" width="28pt" height="28pt" viewBox="0 0 28 28" version="1.1">
<g id="surface1">
<path style=" stroke:none;fill-rule:nonzero;fill:rgb(0%,0%,0%);fill-opacity:1;" d="M 25.117188 11.839844 C 24.757812 11.632812 24.3125 11.632812 23.953125 11.839844 L 21 13.277344 L 21 11.667969 C 21 11.023438 20.476562 10.5 19.832031 10.5 L 18.457031 10.5 C 18.59375 10.125 18.664062 9.730469 18.667969 9.332031 C 18.667969 7.398438 17.101562 5.832031 15.167969 5.832031 C 14.609375 5.839844 14.0625 5.980469 13.566406 6.242188 C 12.652344 4.257812 10.480469 3.179688 8.347656 3.640625 C 6.210938 4.101562 4.683594 5.984375 4.667969 8.167969 C 4.675781 8.988281 4.902344 9.792969 5.320312 10.5 L 3.5 10.5 C 2.855469 10.5 2.332031 11.023438 2.332031 11.667969 L 2.332031 23.332031 C 2.332031 23.976562 2.855469 24.5 3.5 24.5 L 19.832031 24.5 C 20.476562 24.5 21 23.976562 21 23.332031 L 21 21.722656 L 23.976562 23.214844 C 24.339844 23.398438 24.769531 23.378906 25.117188 23.167969 C 25.460938 22.953125 25.667969 22.574219 25.667969 22.167969 L 25.667969 12.832031 C 25.667969 12.429688 25.460938 12.054688 25.117188 11.839844 Z M 15.167969 8.167969 C 15.8125 8.167969 16.332031 8.6875 16.332031 9.332031 C 16.332031 9.976562 15.8125 10.5 15.167969 10.5 C 14.523438 10.5 14 9.976562 14 9.332031 C 14 8.6875 14.523438 8.167969 15.167969 8.167969 Z M 7 8.167969 C 7 6.878906 8.042969 5.832031 9.332031 5.832031 C 10.621094 5.832031 11.667969 6.878906 11.667969 8.167969 C 11.667969 9.457031 10.621094 10.5 9.332031 10.5 C 8.042969 10.5 7 9.457031 7 8.167969 Z M 18.667969 22.167969 L 4.667969 22.167969 L 4.667969 12.832031 L 18.667969 12.832031 Z M 23.332031 20.277344 L 21 19.109375 L 21 15.890625 L 23.332031 14.722656 Z M 23.332031 20.277344 "/>
<path style=" stroke:none;fill-rule:nonzero;fill:rgb(0%,0%,0%);fill-opacity:1;" d="M 5.832031 18.667969 L 10.5 18.667969 L 10.5 21 L 5.832031 21 Z M 5.832031 18.667969 "/>
</g>
</svg>
