<?xml version="1.0" encoding="UTF-8"?>
<svg xmlns="http://www.w3.org/2000/svg" xmlns:xlink="http://www.w3.org/1999/xlink" width="24pt" height="24pt" viewBox="0 0 24 24" version="1.1">
<g id="surface1">
<path style="fill:none;stroke-width:7;stroke-linecap:butt;stroke-linejoin:miter;stroke:rgb(0%,55.686275%,83.921569%);stroke-opacity:1;stroke-miterlimit:10;" d="M 438.333333 176.666667 C 438.333333 176.666667 434.666667 149.333333 423.5 137.333333 C 409.333333 121.5 393.5 121.416667 386.166667 120.5 C 334.083333 116.5 256 116.5 256 116.5 L 255.833333 116.5 C 255.833333 116.5 177.666667 116.5 125.583333 120.5 C 118.333333 121.416667 102.5 121.5 88.333333 137.333333 C 77.166667 149.416667 73.5 176.666667 73.5 176.666667 C 73.5 176.666667 70 208.833333 70 240.916667 L 70 271 C 70 303.083333 73.666667 335.166667 73.666667 335.166667 C 73.666667 335.166667 77.333333 362.583333 88.5 374.583333 C 102.666667 390.416667 121.166667 389.916667 129.5 391.583333 C 159.333333 394.583333 256 395.583333 256 395.583333 C 256 395.583333 334.166667 395.5 386.333333 391.5 C 393.583333 390.583333 409.416667 390.5 423.583333 374.666667 C 434.666667 362.666667 438.416667 335.333333 438.416667 335.333333 C 438.416667 335.333333 442.083333 303.166667 442.083333 271.083333 L 442.083333 241 C 442 208.833333 438.333333 176.666667 438.333333 176.666667 Z M 438.333333 176.666667 " transform="matrix(0.046875,0,0,0.046875,0,0)"/>
<path style="fill:none;stroke-width:7;stroke-linecap:butt;stroke-linejoin:miter;stroke:rgb(0%,55.686275%,83.921569%);stroke-opacity:1;stroke-miterlimit:10;" d="M 209.5 186.166667 L 209.5 325.833333 L 325.833333 256 Z M 209.5 186.166667 " transform="matrix(0.046875,0,0,0.046875,0,0)"/>
</g>
</svg>
